<svg width="18" height="21" viewBox="0 0 18 21" fill="none" xmlns="http://www.w3.org/2000/svg">
    <path d="M15 2.47991C13.4087 0.888611 11.2504 -0.00537111 8.99999 -0.00537109C6.74955 -0.00537108 4.59129 0.888611 2.99999 2.47991C1.40869 4.07121 0.514709 6.22947 0.514709 8.47991C0.514709 10.7303 1.40869 12.8886 2.99999 14.4799L8.26999 19.7599C8.36295 19.8536 8.47356 19.928 8.59541 19.9788C8.71727 20.0296 8.84798 20.0557 8.97999 20.0557C9.112 20.0557 9.24271 20.0296 9.36457 19.9788C9.48643 19.928 9.59703 19.8536 9.68999 19.7599L15 14.4299C16.5846 12.8452 17.4749 10.696 17.4749 8.45491C17.4749 6.21386 16.5846 4.06459 15 2.47991ZM13.57 12.9999L8.99999 17.5899L4.42999 12.9999C3.52713 12.0962 2.91247 10.9452 2.66369 9.6922C2.4149 8.43925 2.54318 7.14066 3.03229 5.96059C3.52141 4.78052 4.34941 3.77196 5.41162 3.06239C6.47383 2.35281 7.72258 1.97409 8.99999 1.97409C10.2774 1.97409 11.5261 2.35281 12.5884 3.06239C13.6506 3.77196 14.4786 4.78052 14.9677 5.96059C15.4568 7.14066 15.5851 8.43925 15.3363 9.6922C15.0875 10.9452 14.4728 12.0962 13.57 12.9999ZM5.99999 5.40991C5.19271 6.21968 4.73939 7.31648 4.73939 8.45991C4.73939 9.60334 5.19271 10.7001 5.99999 11.5099C6.59975 12.1107 7.36358 12.521 8.19564 12.6893C9.0277 12.8576 9.89094 12.7765 10.6771 12.4561C11.4632 12.1356 12.1372 11.5902 12.6145 10.8882C13.0918 10.1861 13.3511 9.35878 13.36 8.50991C13.3645 7.94311 13.2553 7.38117 13.0389 6.8573C12.8225 6.33343 12.5032 5.85827 12.1 5.45991C11.7037 5.05449 11.2311 4.73145 10.7094 4.50938C10.1878 4.2873 9.62733 4.17059 9.06039 4.16594C8.49345 4.16129 7.93119 4.26881 7.40596 4.4823C6.88073 4.69579 6.40291 5.01104 5.99999 5.40991ZM10.69 10.0899C10.311 10.4747 9.8102 10.7158 9.27312 10.7722C8.73603 10.8285 8.19605 10.6966 7.7455 10.3988C7.29494 10.1011 6.96179 9.65615 6.803 9.13999C6.64421 8.62384 6.66964 8.06855 6.87495 7.56907C7.08026 7.06958 7.45269 6.65693 7.92858 6.40165C8.40446 6.14637 8.95424 6.06432 9.48393 6.16953C10.0136 6.27474 10.4903 6.56067 10.8325 6.97844C11.1747 7.39621 11.3612 7.91988 11.36 8.45991C11.3454 9.07718 11.0865 9.66344 10.64 10.0899H10.69Z" fill="white"/>
</svg>
