<svg width="28" height="22" viewBox="0 0 28 22" fill="none" xmlns="http://www.w3.org/2000/svg">
    <path d="M26 13.6667H24.6666V4.33337C24.6666 3.27251 24.2452 2.25509 23.4951 1.50495C22.7449 0.754801 21.7275 0.333374 20.6666 0.333374H7.33329C6.27243 0.333374 5.25501 0.754801 4.50487 1.50495C3.75472 2.25509 3.33329 3.27251 3.33329 4.33337V13.6667H1.99996C1.64634 13.6667 1.3072 13.8072 1.05715 14.0572C0.807102 14.3073 0.666626 14.6464 0.666626 15V17.6667C0.666626 18.7276 1.08805 19.745 1.8382 20.4951C2.58834 21.2453 3.60576 21.6667 4.66663 21.6667H23.3333C24.3942 21.6667 25.4116 21.2453 26.1617 20.4951C26.9119 19.745 27.3333 18.7276 27.3333 17.6667V15C27.3333 14.6464 27.1928 14.3073 26.9428 14.0572C26.6927 13.8072 26.3536 13.6667 26 13.6667ZM5.99996 4.33337C5.99996 3.97975 6.14044 3.64061 6.39048 3.39057C6.64053 3.14052 6.97967 3.00004 7.33329 3.00004H20.6666C21.0202 3.00004 21.3594 3.14052 21.6094 3.39057C21.8595 3.64061 22 3.97975 22 4.33337V13.6667H5.99996V4.33337ZM24.6666 17.6667C24.6666 18.0203 24.5262 18.3595 24.2761 18.6095C24.0261 18.8596 23.6869 19 23.3333 19H4.66663C4.313 19 3.97387 18.8596 3.72382 18.6095C3.47377 18.3595 3.33329 18.0203 3.33329 17.6667V16.3334H24.6666V17.6667Z"
          fill="#A53DFF"/>
</svg>
