<svg width="24" height="28" viewBox="0 0 24 28" fill="none" xmlns="http://www.w3.org/2000/svg">
    <path d="M17.3333 16.6666H6.66667C6.31305 16.6666 5.97391 16.8071 5.72386 17.0572C5.47381 17.3072 5.33333 17.6463 5.33333 18C5.33333 18.3536 5.47381 18.6927 5.72386 18.9428C5.97391 19.1928 6.31305 19.3333 6.66667 19.3333H17.3333C17.687 19.3333 18.0261 19.1928 18.2761 18.9428C18.5262 18.6927 18.6667 18.3536 18.6667 18C18.6667 17.6463 18.5262 17.3072 18.2761 17.0572C18.0261 16.8071 17.687 16.6666 17.3333 16.6666ZM17.3333 11.3333H9.33333C8.97971 11.3333 8.64057 11.4738 8.39052 11.7238C8.14048 11.9739 8 12.313 8 12.6666C8 13.0202 8.14048 13.3594 8.39052 13.6094C8.64057 13.8595 8.97971 14 9.33333 14H17.3333C17.687 14 18.0261 13.8595 18.2761 13.6094C18.5262 13.3594 18.6667 13.0202 18.6667 12.6666C18.6667 12.313 18.5262 11.9739 18.2761 11.7238C18.0261 11.4738 17.687 11.3333 17.3333 11.3333ZM22.6667 3.33329H18.6667V1.99996C18.6667 1.64634 18.5262 1.3072 18.2761 1.05715C18.0261 0.807102 17.687 0.666626 17.3333 0.666626C16.9797 0.666626 16.6406 0.807102 16.3905 1.05715C16.1405 1.3072 16 1.64634 16 1.99996V3.33329H13.3333V1.99996C13.3333 1.64634 13.1929 1.3072 12.9428 1.05715C12.6928 0.807102 12.3536 0.666626 12 0.666626C11.6464 0.666626 11.3072 0.807102 11.0572 1.05715C10.8071 1.3072 10.6667 1.64634 10.6667 1.99996V3.33329H8V1.99996C8 1.64634 7.85952 1.3072 7.60948 1.05715C7.35943 0.807102 7.02029 0.666626 6.66667 0.666626C6.31305 0.666626 5.97391 0.807102 5.72386 1.05715C5.47381 1.3072 5.33333 1.64634 5.33333 1.99996V3.33329H1.33333C0.979711 3.33329 0.640573 3.47377 0.390524 3.72382C0.140476 3.97387 0 4.313 0 4.66663V23.3333C0 24.3942 0.421427 25.4116 1.17157 26.1617C1.92172 26.9119 2.93913 27.3333 4 27.3333H20C21.0609 27.3333 22.0783 26.9119 22.8284 26.1617C23.5786 25.4116 24 24.3942 24 23.3333V4.66663C24 4.313 23.8595 3.97387 23.6095 3.72382C23.3594 3.47377 23.0203 3.33329 22.6667 3.33329ZM21.3333 23.3333C21.3333 23.6869 21.1929 24.0261 20.9428 24.2761C20.6928 24.5262 20.3536 24.6666 20 24.6666H4C3.64638 24.6666 3.30724 24.5262 3.05719 24.2761C2.80714 24.0261 2.66667 23.6869 2.66667 23.3333V5.99996H5.33333V7.33329C5.33333 7.68691 5.47381 8.02605 5.72386 8.2761C5.97391 8.52615 6.31305 8.66663 6.66667 8.66663C7.02029 8.66663 7.35943 8.52615 7.60948 8.2761C7.85952 8.02605 8 7.68691 8 7.33329V5.99996H10.6667V7.33329C10.6667 7.68691 10.8071 8.02605 11.0572 8.2761C11.3072 8.52615 11.6464 8.66663 12 8.66663C12.3536 8.66663 12.6928 8.52615 12.9428 8.2761C13.1929 8.02605 13.3333 7.68691 13.3333 7.33329V5.99996H16V7.33329C16 7.68691 16.1405 8.02605 16.3905 8.2761C16.6406 8.52615 16.9797 8.66663 17.3333 8.66663C17.687 8.66663 18.0261 8.52615 18.2761 8.2761C18.5262 8.02605 18.6667 7.68691 18.6667 7.33329V5.99996H21.3333V23.3333Z"
          fill="white"/>
</svg>
