<svg width="28" height="28" viewBox="0 0 28 28" fill="none" xmlns="http://www.w3.org/2000/svg">
    <path d="M27.3333 7.65331C27.3343 7.47784 27.3007 7.30389 27.2343 7.14144C27.168 6.97899 27.0702 6.83123 26.9466 6.70665L21.2933 1.05331C21.1687 0.92974 21.021 0.831973 20.8585 0.76562C20.6961 0.699267 20.5221 0.665634 20.3466 0.666648C20.1712 0.665634 19.9972 0.699267 19.8348 0.76562C19.6723 0.831973 19.5246 0.92974 19.4 1.05331L15.6266 4.82665L1.05331 19.4C0.92974 19.5246 0.831973 19.6723 0.76562 19.8348C0.699267 19.9972 0.665634 20.1712 0.666648 20.3466V26C0.666648 26.3536 0.807124 26.6927 1.05717 26.9428C1.30722 27.1928 1.64636 27.3333 1.99998 27.3333H7.65331C7.83988 27.3435 8.0265 27.3143 8.20107 27.2477C8.37564 27.1811 8.53426 27.0785 8.66665 26.9466L23.16 12.3733L26.9466 8.66665C27.0683 8.53742 27.1675 8.38869 27.24 8.22665C27.2528 8.12037 27.2528 8.01293 27.24 7.90665C27.2462 7.84458 27.2462 7.78205 27.24 7.71998L27.3333 7.65331ZM7.10665 24.6666H3.33331V20.8933L16.5733 7.65331L20.3466 11.4266L7.10665 24.6666ZM22.2266 9.54665L18.4533 5.77331L20.3466 3.89331L24.1066 7.65331L22.2266 9.54665Z" fill="#A53DFF"/>
</svg>
